<svg width="28" height="28" viewBox="0 0 28 28" fill="none" xmlns="http://www.w3.org/2000/svg">
<path d="M26.2188 0.71875H1.78125C1.19355 0.71875 0.71875 1.19355 0.71875 1.78125V26.2188C0.71875 26.8064 1.19355 27.2812 1.78125 27.2812H26.2188C26.8064 27.2812 27.2812 26.8064 27.2812 26.2188V1.78125C27.2812 1.19355 26.8064 0.71875 26.2188 0.71875ZM15.1887 7.84746C14.9496 7.48555 14.5213 7.30293 13.9037 7.30293C13.8605 7.30293 13.8041 7.30625 13.7277 7.31289C13.6547 7.31953 13.5086 7.36269 13.2994 7.43574C13.0893 7.5109 12.8896 7.61243 12.7051 7.73789C12.5225 7.86406 12.3232 8.06992 12.1074 8.34883C11.8949 8.63105 11.7256 8.95977 11.5994 9.33828L8.47832 9.05938C8.47832 8.64766 8.55801 8.23926 8.71074 7.83418C8.86348 7.4291 9.10254 7.04062 9.42129 6.67207C9.74004 6.30019 10.1219 5.9748 10.5668 5.6959C11.0117 5.41367 11.5496 5.19121 12.1738 5.02188C12.8014 4.85254 13.4721 4.76953 14.1959 4.76953C14.9031 4.76953 15.5439 4.85586 16.115 5.0252C16.6861 5.19785 17.1477 5.40703 17.4896 5.65937C17.8192 5.89709 18.1093 6.18503 18.3496 6.5127C18.5787 6.83145 18.7381 7.12695 18.8277 7.39922C18.9174 7.67148 18.9605 7.92051 18.9605 8.15625V14.2158C18.9605 14.4283 19.007 14.6475 19.1033 14.8732C19.1996 15.099 19.3125 15.2982 19.442 15.4709C19.5715 15.6436 19.7043 15.7996 19.8404 15.9457C19.9766 16.0885 20.0928 16.2014 20.1924 16.2744L20.3285 16.3873L17.9213 18.6916C17.6391 18.4359 17.3602 18.1803 17.0846 17.9146C16.809 17.649 16.6031 17.4498 16.4703 17.3137L16.2678 17.1078C16.1881 17.0314 16.1018 16.9186 16.0021 16.7691C15.7332 17.1742 15.3879 17.5262 14.9695 17.825C14.5479 18.1238 14.0963 18.343 13.6182 18.4791C13.1367 18.6152 12.642 18.6949 12.134 18.7148C11.626 18.7348 11.1379 18.665 10.6764 18.499C10.2148 18.333 9.79648 18.1105 9.42793 17.825C9.05937 17.5395 8.76719 17.1543 8.54805 16.6629C8.32891 16.1715 8.21934 15.617 8.21934 14.9895C8.21934 14.4117 8.31894 13.8838 8.51484 13.4057C8.71406 12.9242 8.96641 12.5258 9.27852 12.207C9.59062 11.8883 9.96582 11.6027 10.4074 11.3537C10.849 11.1047 11.284 10.9088 11.709 10.766C12.134 10.6266 12.5922 10.507 13.0869 10.4107C13.5816 10.3145 14.0033 10.2514 14.3553 10.2215C14.7072 10.1916 15.0592 10.1684 15.4111 10.1551V8.84687C15.4111 8.39863 15.3348 8.0666 15.1887 7.84746V7.84746ZM21.1818 20.4514C21.0889 20.5609 20.9328 20.7104 20.7137 20.8996C20.4945 21.0889 20.1559 21.3213 19.701 21.6002C19.2461 21.8791 18.7447 22.1314 18.2068 22.3605C17.6656 22.5896 17.0016 22.7889 16.2113 22.9582C15.4244 23.1275 14.6109 23.2105 13.7775 23.2105C12.9342 23.2105 12.0941 23.1043 11.2508 22.8918C10.4074 22.6793 9.67031 22.417 9.03281 22.1049C8.39863 21.7928 7.78437 21.4342 7.20332 21.0357C6.61894 20.634 6.15078 20.2754 5.79551 19.9566C5.44355 19.6379 5.14473 19.3357 4.90566 19.0568C4.84922 18.9937 4.8127 18.9373 4.79941 18.8875C4.78613 18.8377 4.78945 18.7945 4.80937 18.7646C4.8293 18.7348 4.85918 18.7115 4.8957 18.6916C4.93537 18.674 4.97898 18.6672 5.02213 18.6718C5.06527 18.6765 5.10642 18.6925 5.14141 18.7182C6.49941 19.5217 7.56191 20.0895 8.32559 20.4248C11.0781 21.6334 13.9037 21.9422 16.8023 21.3512C18.1471 21.0756 19.5283 20.6141 20.9494 19.9633C21.0557 19.9234 21.1486 19.9135 21.225 19.9334C21.3014 19.9533 21.3412 20.0131 21.3412 20.1127C21.3412 20.2057 21.2881 20.3219 21.1818 20.4514V20.4514ZM23.1707 19.4885C23.1109 19.857 23.008 20.2057 22.8686 20.5443C22.6295 21.1121 22.3273 21.5404 21.9688 21.8193C21.8492 21.9156 21.7563 21.9455 21.6932 21.9123C21.6301 21.8791 21.6301 21.7961 21.6932 21.6666C21.8426 21.3578 21.9986 20.9428 22.1646 20.4148C22.3307 19.8902 22.3539 19.5516 22.2344 19.4021C22.1979 19.3523 22.1447 19.3158 22.0684 19.2826C21.9953 19.2527 21.899 19.2328 21.7828 19.2195C21.6666 19.2063 21.5604 19.1996 21.4707 19.193C21.3777 19.1863 21.2549 19.1863 21.0988 19.193C20.9428 19.1996 20.8332 19.2062 20.7635 19.2129C20.5744 19.2313 20.3851 19.248 20.1957 19.2627C20.1525 19.2693 20.1061 19.276 20.0596 19.2793C20.0098 19.2826 19.9699 19.2859 19.9434 19.2893L19.8537 19.2992C19.8205 19.3025 19.7973 19.3059 19.7807 19.3059H19.6744L19.6412 19.2992L19.6213 19.2826L19.6047 19.2527C19.5615 19.1432 19.7275 19.007 20.1027 18.841C20.4779 18.675 20.8432 18.5721 21.1951 18.5322C21.5205 18.4824 21.9023 18.4824 22.3406 18.5223C22.7789 18.5621 23.0479 18.6451 23.1475 18.768C23.2238 18.8842 23.2305 19.1232 23.1707 19.4885V19.4885ZM13.1035 12.5225C12.7184 12.6852 12.4096 12.9275 12.1805 13.2529C11.9514 13.5783 11.8352 13.9701 11.8352 14.4316C11.8352 15.0227 12.0842 15.4775 12.5789 15.7996C13.0471 16.1018 13.5385 16.1781 14.0531 16.0254C14.6475 15.8527 15.0492 15.4311 15.2617 14.7604C15.3613 14.4516 15.4111 14.1063 15.4111 13.7211V12.0543C14.9928 12.0676 14.601 12.1074 14.2324 12.1771C13.8639 12.2469 13.4887 12.3631 13.1035 12.5225V12.5225Z" fill="#428260"/>
</svg>
