<svg width="67" height="77" viewBox="0 0 67 77" fill="none" xmlns="http://www.w3.org/2000/svg">
<path d="M32.5352 74.6467C32.5352 75.4166 31.7015 75.8978 31.0349 75.5126L0.500095 57.8702C0.190853 57.6916 0.00037384 57.3615 0.00037384 57.0044L0.000377655 21.7185C0.000377655 20.9485 0.83399 20.4674 1.50066 20.8526L32.0354 38.4949C32.3447 38.6736 32.5352 39.0036 32.5352 39.3608L32.5352 74.6467Z" fill="#383838"/>
<path d="M33.8882 37.5121C33.5781 37.6919 33.1955 37.6919 32.8853 37.5121L2.26734 19.7668C1.60259 19.3815 1.60259 18.4216 2.26734 18.0364L32.8853 0.291031C33.1955 0.111286 33.5781 0.11129 33.8882 0.291035L64.5062 18.0364C65.171 18.4216 65.171 19.3815 64.5062 19.7668L33.8882 37.5121Z" fill="#383838"/>
<path d="M66.7734 57.0044C66.7734 57.3615 66.583 57.6916 66.2737 57.8702L35.7389 75.5126C35.0723 75.8978 34.2387 75.4166 34.2387 74.6467L34.2387 39.3608C34.2387 39.0036 34.4291 38.6736 34.7384 38.4949L65.2732 20.8526C65.9398 20.4674 66.7734 20.9485 66.7734 21.7185L66.7734 57.0044Z" fill="#428260"/>
<path d="M20.1196 8.42134C19.8096 8.24233 19.4275 8.24273 19.1178 8.42238L16.0632 10.1945C15.3981 10.5803 15.3991 11.541 16.065 11.9255L46.6188 29.5657C46.9283 29.7444 47.3096 29.7444 47.619 29.5656L50.6802 27.7973C51.3467 27.4123 51.3465 26.4502 50.68 26.0654L20.1196 8.42134Z" fill="#DBB11B"/>
<path d="M47.9561 31.4105C47.9561 31.0525 48.1474 30.7218 48.4579 30.5435L51.5198 28.7841C52.1865 28.4011 53.018 28.8823 53.018 29.6512V64.9317C53.018 65.2891 52.8274 65.6192 52.5178 65.7978L49.4559 67.5647C48.7892 67.9494 47.9561 67.4683 47.9561 66.6986V31.4105Z" fill="#DBB11B"/>
<g clip-path="url(#clip0_405_2491)">
<rect width="9.81298" height="9.81298" transform="matrix(0.866044 0.499967 -0.866044 0.499967 12.1406 13.9619)" fill="white"/>
<path d="M6.0699 18.0377L11.0273 15.1758L11.7356 15.5846L6.7781 18.4466L6.0699 18.0377ZM7.13221 18.651L12.0897 15.7891L12.7979 16.1979L7.84041 19.0598L7.13221 18.651ZM8.19452 19.2643L13.152 16.4023L13.5061 16.6067L8.54862 19.4687L8.19452 19.2643ZM9.25683 19.8775L14.2143 17.0156L14.9225 17.4244L9.96503 20.2864L9.25683 19.8775ZM10.3191 20.4908L15.2766 17.6289L16.3389 18.2421L11.3814 21.1041L10.3191 20.4908ZM11.7356 21.3085L16.693 18.4466L17.0471 18.651L12.0897 21.5129L11.7356 21.3085ZM12.7979 21.9218L17.7553 19.0598L18.8176 19.6731L13.8602 22.535L12.7979 21.9218Z" fill="#383838"/>
</g>
<defs>
<clipPath id="clip0_405_2491">
<rect width="9.81298" height="9.81298" fill="white" transform="matrix(0.866044 0.499967 -0.866044 0.499967 12.1406 13.9619)"/>
</clipPath>
</defs>
</svg>
