<svg width="25" height="25" viewBox="0 0 25 25" fill="none" xmlns="http://www.w3.org/2000/svg">
<path fill-rule="evenodd" clip-rule="evenodd" d="M22.9163 12.5C22.9163 18.2529 18.2526 22.9166 12.4997 22.9166C6.74671 22.9166 2.08301 18.2529 2.08301 12.5C2.08301 6.74701 6.74671 2.08331 12.4997 2.08331C18.2526 2.08331 22.9163 6.74701 22.9163 12.5ZM12.8729 9.77337C11.8598 10.1948 9.83484 11.067 6.79817 12.39C6.30507 12.5861 6.04675 12.778 6.02324 12.9655C5.9835 13.2825 6.38048 13.4074 6.92107 13.5774C6.99461 13.6005 7.0708 13.6244 7.14891 13.6498C7.68076 13.8227 8.3962 14.025 8.76813 14.033C9.10551 14.0403 9.48206 13.9012 9.89778 13.6157C12.735 11.7005 14.1996 10.7325 14.2916 10.7116C14.3565 10.6969 14.4464 10.6784 14.5073 10.7325C14.5682 10.7866 14.5622 10.8892 14.5557 10.9167C14.5164 11.0843 12.9581 12.5331 12.1517 13.2828C11.9003 13.5165 11.7219 13.6823 11.6855 13.7202C11.6038 13.805 11.5206 13.8852 11.4406 13.9623C10.9465 14.4387 10.576 14.7958 11.4611 15.3792C11.8865 15.6595 12.2269 15.8913 12.5664 16.1225C12.9373 16.3751 13.3072 16.627 13.7858 16.9407C13.9077 17.0206 14.0242 17.1036 14.1376 17.1845C14.5692 17.4922 14.9569 17.7686 15.4359 17.7245C15.7143 17.6989 16.0018 17.4372 16.1478 16.6566C16.4929 14.8118 17.1712 10.8146 17.328 9.1675C17.3417 9.02319 17.3244 8.83851 17.3106 8.75743C17.2967 8.67636 17.2677 8.56085 17.1623 8.47534C17.0375 8.37407 16.8448 8.35271 16.7587 8.35423C16.3669 8.36113 15.7658 8.57014 12.8729 9.77337Z" fill="#383838"/>
</svg>
