<svg width="25" height="25" viewBox="0 0 25 25" fill="none" xmlns="http://www.w3.org/2000/svg">
<path d="M12.5393 3.42743C7.39335 3.42743 3.20544 7.4611 3.20363 12.4184C3.20242 14.0036 3.63306 15.5508 4.4496 16.9135L3.125 21.5726L8.07439 20.3224C9.45114 21.0426 10.982 21.4182 12.5357 21.4171H12.5393C17.6853 21.4171 21.8732 17.3829 21.875 12.4256C21.8762 10.0244 20.906 7.76412 19.1429 6.06513C17.3804 4.36553 15.0367 3.42803 12.5393 3.42743ZM12.5393 19.8984H12.5363C11.144 19.8984 9.77823 19.5379 8.58669 18.8569L8.30242 18.6948L5.36653 19.4363L6.1504 16.6782L5.96593 16.3958C5.19107 15.214 4.77859 13.8315 4.77923 12.4184C4.78105 8.29759 8.2625 4.94618 12.5423 4.94618C14.6145 4.94678 16.5627 5.72521 18.0282 7.13751C19.4937 8.54981 20.3 10.4278 20.2988 12.425C20.297 16.5458 16.8161 19.8984 12.5387 19.8984H12.5393ZM16.7956 14.3006C16.5621 14.1887 15.4153 13.645 15.2012 13.5694C14.9877 13.495 14.8323 13.4563 14.6768 13.6813C14.522 13.9063 14.0744 14.4125 13.9389 14.5619C13.8022 14.7119 13.6661 14.7301 13.4327 14.6182C13.1992 14.5057 12.4474 14.2686 11.5571 13.5028C10.8633 12.9077 10.3952 12.1722 10.2591 11.9466C10.123 11.7222 10.2446 11.6006 10.3613 11.4887C10.4659 11.3889 10.5948 11.2268 10.7109 11.0956C10.827 10.9643 10.8657 10.8706 10.9444 10.7206C11.0218 10.5712 10.9831 10.4393 10.9244 10.3274C10.8657 10.2143 10.4 9.10868 10.2046 8.65928C10.0159 8.22138 9.82359 8.28005 9.68024 8.27279C9.54415 8.26674 9.38931 8.26493 9.23266 8.26493C9.07843 8.26493 8.825 8.32118 8.61089 8.54618C8.39738 8.77118 7.79435 9.31432 7.79435 10.42C7.79435 11.5262 8.63024 12.5944 8.74698 12.7444C8.86371 12.8938 10.3921 15.1637 12.7323 16.1375C13.2887 16.368 13.723 16.5065 14.0623 16.6105C14.6212 16.7817 15.1298 16.7569 15.5315 16.6994C15.979 16.6347 16.9117 16.1563 17.1052 15.6319C17.3 15.1075 17.3 14.6575 17.2419 14.5637C17.1851 14.47 17.029 14.4137 16.7956 14.3006Z" fill="#383838"/>
</svg>
