<svg width="162" height="33" viewBox="0 0 162 33" fill="none" xmlns="http://www.w3.org/2000/svg">
<path d="M0.308928 3.30906C0.784982 2.59713 1.54971 2.54695 2.65881 3.1676C27.1908 16.0279 53.9358 22.4443 82.7928 22.4443C102.048 22.4443 121.064 19.2133 139.848 12.7466L141.96 11.8887C142.912 11.5099 143.545 11.2726 143.94 11.1037C145.47 10.5561 146.579 10.8162 147.501 11.8887C148.316 12.9338 148.108 13.9332 146.685 14.814C144.968 15.9549 142.624 17.3103 139.904 18.7843C131.492 23.3023 122.072 26.7935 111.629 29.2898C101.687 31.7145 91.4367 32.9617 81.1367 33C65.8372 33 51.3581 30.5995 37.6943 25.7758C24.2166 21.0193 11.7971 14.119 1.02807 5.40377C0.344379 4.95197 0 4.47735 0 4.04837C0 3.76087 0.131674 3.50075 0.344379 3.26344L0.308928 3.30906ZM131.821 5.56806C132.034 5.2121 132.348 4.90178 132.718 4.54582C134.878 3.18203 137.276 2.1532 139.813 1.50187C143.381 0.686715 147.03 0.192944 150.706 0.0278237C151.659 -0.0451942 152.58 0.0278338 153.477 0.219506C157.857 0.575469 160.547 1.24175 161.392 2.21837C161.813 2.766 162 3.6194 162 4.59602V5.52242C162 8.61199 161.048 12.272 159.179 16.4569C157.305 20.6645 154.697 24.0644 151.4 26.6794C150.899 27.0582 150.448 27.227 150.053 27.227C149.84 27.227 149.658 27.227 149.445 27.154C148.838 26.8939 148.731 26.4421 149.025 25.7028C152.666 18.0267 154.459 12.6554 154.459 9.63425C154.459 8.73065 154.246 7.99591 153.877 7.54411C152.899 6.54468 150.159 5.97422 145.596 5.97422C143.961 5.97422 142.011 6.07006 139.742 6.26174C137.291 6.54924 134.992 6.80936 132.991 7.09231C132.383 7.09231 131.988 6.99648 131.776 6.80481C131.563 6.64052 131.512 6.5173 131.619 6.35301C131.619 6.23435 131.669 6.16133 131.776 5.94684V5.59087L131.821 5.56806Z" fill="#428260"/>
</svg>
