<svg width="253" height="290" viewBox="0 0 253 290" fill="none" xmlns="http://www.w3.org/2000/svg">
<g opacity="0.4">
<path d="M123.272 287.662C123.272 288.432 122.439 288.913 121.772 288.528L0.500488 218.46C0.191246 218.281 0.000762939 217.951 0.000762939 217.594L0.000778198 77.4566C0.000778198 76.6866 0.834396 76.2055 1.50106 76.5907L122.773 146.659C123.082 146.837 123.272 147.167 123.272 147.525L123.272 287.662Z" fill="#383838"/>
<path d="M127.001 142.939C126.691 143.119 126.308 143.119 125.998 142.939L4.42686 72.4802C3.76212 72.0949 3.76213 71.1351 4.42686 70.7498L125.998 0.290619C126.308 0.11087 126.691 0.11087 127.001 0.290619L248.572 70.7498C249.236 71.1351 249.236 72.0949 248.572 72.4802L127.001 142.939Z" fill="#383838"/>
<path d="M253 217.594C253 217.951 252.81 218.281 252.5 218.46L131.229 288.528C130.562 288.913 129.728 288.432 129.728 287.662L129.728 147.525C129.728 147.167 129.919 146.837 130.228 146.659L251.5 76.5907C252.166 76.2055 253 76.6866 253 77.4566L253 217.594Z" fill="#428260"/>
<path d="M181.7 117.399C181.7 117.041 181.892 116.71 182.202 116.532L199.381 106.661C200.048 106.278 200.88 106.759 200.88 107.528V247.633C200.88 247.99 200.689 248.32 200.379 248.499L183.2 258.412C182.533 258.797 181.7 258.315 181.7 257.546V117.399Z" fill="#DBB11B"/>
</g>
</svg>
