<svg width="253" height="290" viewBox="0 0 253 290" fill="none" xmlns="http://www.w3.org/2000/svg">
<g opacity="0.4">
<path d="M123.272 287.662C123.272 288.432 122.439 288.913 121.772 288.528L0.500488 218.46C0.191246 218.281 0.000762939 217.951 0.000762939 217.594L0.000778198 77.4566C0.000778198 76.6866 0.834396 76.2055 1.50106 76.5907L122.773 146.659C123.082 146.837 123.272 147.167 123.272 147.525L123.272 287.662Z" fill="#383838"/>
<path d="M127.001 142.939C126.691 143.119 126.308 143.119 125.998 142.939L4.42686 72.4802C3.76212 72.0949 3.76213 71.1351 4.42686 70.7498L125.998 0.290619C126.308 0.11087 126.691 0.11087 127.001 0.290619L248.572 70.7498C249.236 71.1351 249.236 72.0949 248.572 72.4802L127.001 142.939Z" fill="#383838"/>
<path d="M253 217.594C253 217.951 252.81 218.281 252.5 218.46L131.229 288.528C130.562 288.913 129.728 288.432 129.728 287.662L129.728 147.525C129.728 147.167 129.919 146.837 130.228 146.659L251.5 76.5907C252.166 76.2055 253 76.6866 253 77.4566L253 217.594Z" fill="#428260"/>
<path d="M74.8348 31.0994C74.5247 30.9204 74.1426 30.9208 73.833 31.1004L56.6948 41.0428C56.0298 41.4287 56.0308 42.3894 56.6966 42.7738L178.031 112.826C178.34 113.005 178.722 113.005 179.031 112.826L196.206 102.905C196.872 102.52 196.872 101.558 196.206 101.173L74.8348 31.0994Z" fill="#DBB11B"/>
<path d="M181.7 117.399C181.7 117.041 181.892 116.71 182.202 116.532L199.381 106.661C200.048 106.278 200.88 106.759 200.88 107.528V247.633C200.88 247.99 200.689 248.32 200.379 248.499L183.2 258.412C182.533 258.797 181.7 258.315 181.7 257.546V117.399Z" fill="#DBB11B"/>
<g clip-path="url(#clip0_405_2378)">
<rect width="29.5264" height="29.5264" transform="matrix(0.866044 0.499967 -0.866044 0.499967 36.5723 57)" fill="white"/>
<path d="M17.394 69.3019L32.3105 60.6906L34.4415 61.9207L19.5249 70.5321L17.394 69.3019ZM20.5904 71.1471L35.5069 62.5358L37.6379 63.766L22.7213 72.3773L20.5904 71.1471ZM23.7868 72.9924L38.7033 64.3811L39.7688 64.9962L24.8523 73.6075L23.7868 72.9924ZM26.9832 74.8377L41.8997 66.2264L44.0307 67.4566L29.1141 76.0679L26.9832 74.8377ZM30.1796 76.683L45.0961 68.0717L48.2925 69.917L33.376 78.5283L30.1796 76.683ZM34.4415 79.1434L49.358 70.5321L50.4235 71.1471L35.5069 79.7585L34.4415 79.1434ZM37.6379 80.9886L52.5544 72.3773L55.7508 74.2226L40.8343 82.8339L37.6379 80.9886Z" fill="#383838"/>
</g>
</g>
<defs>
<clipPath id="clip0_405_2378">
<rect width="29.5264" height="29.5264" fill="white" transform="matrix(0.866044 0.499967 -0.866044 0.499967 36.5723 57)"/>
</clipPath>
</defs>
</svg>
