<svg width="309" height="141" viewBox="0 0 309 141" fill="none" xmlns="http://www.w3.org/2000/svg">
<path d="M14.666 15.3594V122H-9.21094V15.3594H14.666ZM78.3867 15.3594L36.6387 68.6797L12.3223 95.0469L8.00098 72.8545L24.041 49.8564L49.0898 15.3594H78.3867ZM50.7012 122L21.2578 73.2939L39.4219 59.1582L78.9727 122H50.7012ZM101.385 65.457L122.991 51.7607C126.019 49.8076 127.947 47.9277 128.777 46.1211C129.656 44.3145 130.096 42.4102 130.096 40.4082C130.096 38.2598 129.314 36.2578 127.752 34.4023C126.189 32.5469 123.992 31.6191 121.16 31.6191C119.109 31.6191 117.376 32.083 115.96 33.0107C114.593 33.9385 113.543 35.1836 112.811 36.7461C112.127 38.2598 111.785 39.9443 111.785 41.7998C111.785 43.9971 112.371 46.2432 113.543 48.5381C114.764 50.7842 116.375 53.1523 118.377 55.6426C120.379 58.1328 122.625 60.8672 125.115 63.8457L175.286 122H149.578L108.636 75.0518C105.218 70.7549 102.239 66.7998 99.7002 63.1865C97.1611 59.5732 95.1836 56.082 93.7676 52.7129C92.3516 49.2949 91.6436 45.7793 91.6436 42.166C91.6436 36.5508 92.8643 31.6191 95.3057 27.3711C97.7471 23.123 101.165 19.8027 105.56 17.4102C110.003 15.0176 115.228 13.8213 121.233 13.8213C126.849 13.8213 131.707 14.9688 135.809 17.2637C139.91 19.5586 143.084 22.6104 145.33 26.4189C147.576 30.2275 148.699 34.4023 148.699 38.9434C148.699 42.2148 148.089 45.291 146.868 48.1719C145.647 51.0039 143.963 53.6162 141.814 56.0088C139.715 58.3525 137.298 60.501 134.563 62.4541L110.613 79.373C109.197 80.7891 108.099 82.2051 107.317 83.6211C106.585 85.0371 106.072 86.4287 105.779 87.7959C105.486 89.1631 105.34 90.5547 105.34 91.9707C105.34 94.6562 105.901 97.0488 107.024 99.1484C108.147 101.199 109.71 102.811 111.712 103.982C113.714 105.154 115.984 105.74 118.523 105.74C122.479 105.74 126.312 104.861 130.022 103.104C133.782 101.346 137.127 98.8555 140.057 95.6328C142.986 92.4102 145.306 88.5771 147.015 84.1338C148.772 79.6416 149.651 74.71 149.651 69.3389H168.987C168.987 74.9541 168.426 80.3008 167.303 85.3789C166.18 90.4082 164.373 95.0713 161.883 99.3682C159.393 103.616 156.048 107.376 151.849 110.647C151.604 110.843 151.165 111.16 150.53 111.6C149.944 112.039 149.505 112.356 149.212 112.552C144.329 116.263 139.349 119.021 134.271 120.828C129.241 122.635 123.504 123.538 117.059 123.538C109.93 123.538 103.753 122.244 98.5283 119.656C93.3525 117.068 89.3486 113.504 86.5166 108.963C83.6846 104.422 82.2686 99.2217 82.2686 93.3623C82.2686 89.1631 83.0742 85.501 84.6855 82.376C86.3457 79.2021 88.6162 76.2725 91.4971 73.5869C94.3779 70.8525 97.6738 68.1426 101.385 65.457ZM197.771 15.3594H217.547L243.182 91.6045L268.743 15.3594H288.519L251.165 122H235.125L197.771 15.3594ZM186.346 15.3594H206.487L210.223 94.3877V122H186.346V15.3594ZM279.803 15.3594H300.018V122H276.067V94.3877L279.803 15.3594Z" fill="#383838" fill-opacity="0.12"/>
</svg>
