<svg width="34" height="34" viewBox="0 0 34 34" fill="none" xmlns="http://www.w3.org/2000/svg">
<path d="M29.2188 3.71875H4.78125C4.19355 3.71875 3.71875 4.19355 3.71875 4.78125V29.2188C3.71875 29.8064 4.19355 30.2812 4.78125 30.2812H29.2188C29.8064 30.2812 30.2812 29.8064 30.2812 29.2188V4.78125C30.2812 4.19355 29.8064 3.71875 29.2188 3.71875ZM18.1887 10.8475C17.9496 10.4855 17.5213 10.3029 16.9037 10.3029C16.8605 10.3029 16.8041 10.3063 16.7277 10.3129C16.6547 10.3195 16.5086 10.3627 16.2994 10.4357C16.0893 10.5109 15.8896 10.6124 15.7051 10.7379C15.5225 10.8641 15.3232 11.0699 15.1074 11.3488C14.8949 11.6311 14.7256 11.9598 14.5994 12.3383L11.4783 12.0594C11.4783 11.6477 11.558 11.2393 11.7107 10.8342C11.8635 10.4291 12.1025 10.0406 12.4213 9.67207C12.74 9.30019 13.1219 8.9748 13.5668 8.6959C14.0117 8.41367 14.5496 8.19121 15.1738 8.02188C15.8014 7.85254 16.4721 7.76953 17.1959 7.76953C17.9031 7.76953 18.5439 7.85586 19.115 8.0252C19.6861 8.19785 20.1477 8.40703 20.4896 8.65937C20.8192 8.89709 21.1093 9.18503 21.3496 9.5127C21.5787 9.83145 21.7381 10.127 21.8277 10.3992C21.9174 10.6715 21.9605 10.9205 21.9605 11.1562V17.2158C21.9605 17.4283 22.007 17.6475 22.1033 17.8732C22.1996 18.099 22.3125 18.2982 22.442 18.4709C22.5715 18.6436 22.7043 18.7996 22.8404 18.9457C22.9766 19.0885 23.0928 19.2014 23.1924 19.2744L23.3285 19.3873L20.9213 21.6916C20.6391 21.4359 20.3602 21.1803 20.0846 20.9146C19.809 20.649 19.6031 20.4498 19.4703 20.3137L19.2678 20.1078C19.1881 20.0314 19.1018 19.9186 19.0021 19.7691C18.7332 20.1742 18.3879 20.5262 17.9695 20.825C17.5479 21.1238 17.0963 21.343 16.6182 21.4791C16.1367 21.6152 15.642 21.6949 15.134 21.7148C14.626 21.7348 14.1379 21.665 13.6764 21.499C13.2148 21.333 12.7965 21.1105 12.4279 20.825C12.0594 20.5395 11.7672 20.1543 11.548 19.6629C11.3289 19.1715 11.2193 18.617 11.2193 17.9895C11.2193 17.4117 11.3189 16.8838 11.5148 16.4057C11.7141 15.9242 11.9664 15.5258 12.2785 15.207C12.5906 14.8883 12.9658 14.6027 13.4074 14.3537C13.849 14.1047 14.284 13.9088 14.709 13.766C15.134 13.6266 15.5922 13.507 16.0869 13.4107C16.5816 13.3145 17.0033 13.2514 17.3553 13.2215C17.7072 13.1916 18.0592 13.1684 18.4111 13.1551V11.8469C18.4111 11.3986 18.3348 11.0666 18.1887 10.8475V10.8475ZM24.1818 23.4514C24.0889 23.5609 23.9328 23.7104 23.7137 23.8996C23.4945 24.0889 23.1559 24.3213 22.701 24.6002C22.2461 24.8791 21.7447 25.1314 21.2068 25.3605C20.6656 25.5896 20.0016 25.7889 19.2113 25.9582C18.4244 26.1275 17.6109 26.2105 16.7775 26.2105C15.9342 26.2105 15.0941 26.1043 14.2508 25.8918C13.4074 25.6793 12.6703 25.417 12.0328 25.1049C11.3986 24.7928 10.7844 24.4342 10.2033 24.0357C9.61894 23.634 9.15078 23.2754 8.79551 22.9566C8.44355 22.6379 8.14473 22.3357 7.90566 22.0568C7.84922 21.9937 7.8127 21.9373 7.79941 21.8875C7.78613 21.8377 7.78945 21.7945 7.80937 21.7646C7.8293 21.7348 7.85918 21.7115 7.8957 21.6916C7.93537 21.674 7.97898 21.6672 8.02213 21.6718C8.06527 21.6765 8.10642 21.6925 8.14141 21.7182C9.49941 22.5217 10.5619 23.0895 11.3256 23.4248C14.0781 24.6334 16.9037 24.9422 19.8023 24.3512C21.1471 24.0756 22.5283 23.6141 23.9494 22.9633C24.0557 22.9234 24.1486 22.9135 24.225 22.9334C24.3014 22.9533 24.3412 23.0131 24.3412 23.1127C24.3412 23.2057 24.2881 23.3219 24.1818 23.4514V23.4514ZM26.1707 22.4885C26.1109 22.857 26.008 23.2057 25.8686 23.5443C25.6295 24.1121 25.3273 24.5404 24.9688 24.8193C24.8492 24.9156 24.7563 24.9455 24.6932 24.9123C24.6301 24.8791 24.6301 24.7961 24.6932 24.6666C24.8426 24.3578 24.9986 23.9428 25.1646 23.4148C25.3307 22.8902 25.3539 22.5516 25.2344 22.4021C25.1979 22.3523 25.1447 22.3158 25.0684 22.2826C24.9953 22.2527 24.899 22.2328 24.7828 22.2195C24.6666 22.2063 24.5604 22.1996 24.4707 22.193C24.3777 22.1863 24.2549 22.1863 24.0988 22.193C23.9428 22.1996 23.8332 22.2062 23.7635 22.2129C23.5744 22.2313 23.3851 22.248 23.1957 22.2627C23.1525 22.2693 23.1061 22.276 23.0596 22.2793C23.0098 22.2826 22.9699 22.2859 22.9434 22.2893L22.8537 22.2992C22.8205 22.3025 22.7973 22.3059 22.7807 22.3059H22.6744L22.6412 22.2992L22.6213 22.2826L22.6047 22.2527C22.5615 22.1432 22.7275 22.007 23.1027 21.841C23.4779 21.675 23.8432 21.5721 24.1951 21.5322C24.5205 21.4824 24.9023 21.4824 25.3406 21.5223C25.7789 21.5621 26.0479 21.6451 26.1475 21.768C26.2238 21.8842 26.2305 22.1232 26.1707 22.4885V22.4885ZM16.1035 15.5225C15.7184 15.6852 15.4096 15.9275 15.1805 16.2529C14.9514 16.5783 14.8352 16.9701 14.8352 17.4316C14.8352 18.0227 15.0842 18.4775 15.5789 18.7996C16.0471 19.1018 16.5385 19.1781 17.0531 19.0254C17.6475 18.8527 18.0492 18.4311 18.2617 17.7604C18.3613 17.4516 18.4111 17.1063 18.4111 16.7211V15.0543C17.9928 15.0676 17.601 15.1074 17.2324 15.1771C16.8639 15.2469 16.4887 15.3631 16.1035 15.5225V15.5225Z" fill="#428260"/>
</svg>
