<svg width="668" height="660" viewBox="0 0 668 660" fill="none" xmlns="http://www.w3.org/2000/svg">
<g opacity="0.5">
<path d="M41.911 439.977L117.247 158.818L322.888 364.59L247.551 645.749L41.911 439.977Z" stroke="#383838" stroke-width="6"/>
<path d="M617.465 278.57L335.668 354.58L129.629 147.855L411.427 71.8445L617.465 278.57Z" stroke="#383838" stroke-width="6"/>
<mask id="path-3-inside-1_405_2483" fill="white">
<path d="M549.968 577.306C549.876 577.651 549.606 577.92 549.261 578.013L263.824 654.594C263.08 654.793 262.4 654.113 262.599 653.369L339.131 367.747C339.223 367.402 339.493 367.133 339.838 367.04L625.275 290.459C626.019 290.26 626.7 290.94 626.5 291.684L549.968 577.306Z"/>
</mask>
<path d="M625.275 290.459L626.83 296.254L625.275 290.459ZM339.131 367.747L344.927 369.3L339.131 367.747ZM339.838 367.04L341.393 372.835L339.838 367.04ZM263.824 654.594L265.379 660.389L263.824 654.594ZM262.599 653.369L256.803 651.816L262.599 653.369ZM549.261 578.013L547.707 572.218L549.261 578.013ZM547.707 572.218L262.269 648.798L265.379 660.389L550.816 583.808L547.707 572.218ZM268.395 654.922L344.927 369.3L333.335 366.194L256.803 651.816L268.395 654.922ZM341.393 372.835L626.83 296.254L623.721 284.664L338.283 361.245L341.393 372.835ZM620.705 290.131L544.173 575.753L555.764 578.859L632.296 293.237L620.705 290.131ZM626.83 296.254C623.112 297.252 619.708 293.85 620.705 290.131L632.296 293.237C633.691 288.031 628.926 283.268 623.721 284.664L626.83 296.254ZM344.927 369.3C344.464 371.025 343.117 372.372 341.393 372.835L338.283 361.245C335.868 361.893 333.983 363.779 333.335 366.194L344.927 369.3ZM262.269 648.798C265.987 647.801 269.391 651.203 268.395 654.922L256.803 651.816C255.408 657.022 260.173 661.785 265.379 660.389L262.269 648.798ZM550.816 583.808C553.231 583.16 555.117 581.273 555.764 578.859L544.173 575.753C544.635 574.028 545.982 572.68 547.707 572.218L550.816 583.808Z" fill="#428260" mask="url(#path-3-inside-1_405_2483)"/>
</g>
</svg>
