<svg width="85" height="97" viewBox="0 0 85 97" fill="none" xmlns="http://www.w3.org/2000/svg">
<path d="M39.9746 50.0037L39.9746 86.9295L8.02128 68.4676L8.02128 31.5418L39.9746 50.0037Z" stroke="#383838" stroke-width="3"/>
<path d="M74.4354 27.7778L42.3902 46.3503L10.345 27.7778L42.3902 9.20526L74.4354 27.7778ZM9.59862 27.3452C9.59916 27.3455 9.5997 27.3458 9.60024 27.3461L9.59862 27.3452ZM9.59976 28.2097C9.59938 28.2099 9.599 28.2101 9.59862 28.2104L9.59976 28.2097ZM75.1818 27.3452L75.1808 27.3458C75.1811 27.3456 75.1814 27.3454 75.1818 27.3452L75.4325 27.7778L75.1818 27.3452Z" fill="#428260" stroke="#428260" stroke-width="3"/>
<path d="M76.7588 31.5418L76.7588 68.4676L44.8055 86.9295L44.8055 50.0038L76.7588 31.5418ZM44.0553 87.3629C44.0556 87.3628 44.0559 87.3626 44.0562 87.3625L44.0553 87.3629L44.3055 87.7959L44.0553 87.3629Z" stroke="#428260" stroke-width="3"/>
<path d="M39.8086 50.1197L39.8086 94.3892L1.50009 72.2554L1.5001 27.9859L39.8086 50.1197ZM0.74995 27.5525L0.751183 27.5532L0.74995 27.5525Z" stroke="#383838" stroke-width="3"/>
<path d="M81.8016 24.01L81.5509 24.4426C81.5506 24.4424 81.5503 24.4422 81.5499 24.442L81.5509 24.4426L81.8016 24.01ZM81.8016 24.01L81.5509 23.5774C81.5506 23.5776 81.5503 23.5778 81.55 23.578L81.5509 23.5774L81.8016 24.01ZM42.6398 46.4199L42.6392 46.4196C42.6394 46.4197 42.6396 46.4198 42.6398 46.4199L42.389 46.8525L42.6398 46.4199ZM42.389 46.2746L3.97356 24.01L42.389 1.74547L80.8045 24.01L42.389 46.2746ZM42.6398 1.60016C42.6394 1.60039 42.639 1.60062 42.6386 1.60085L42.6398 1.60016ZM42.1395 1.60085C42.1391 1.60062 42.1387 1.6004 42.1383 1.60016L42.1395 1.60085ZM3.22716 23.5774C3.2277 23.5777 3.22824 23.5781 3.22878 23.5784L3.22716 23.5774Z" fill="#428260" stroke="#428260" stroke-width="3"/>
<path d="M83.2803 27.9859L83.2803 72.2554L44.9718 94.3892L44.9718 50.1197L83.2803 27.9859Z" stroke="#428260" stroke-width="3"/>
<path d="M25.9559 10.1441C25.6459 9.96511 25.2638 9.9655 24.9541 10.1452L20.5087 12.7241C19.8436 13.1099 19.8446 14.0707 20.5105 14.4551L60.0291 37.2711C60.3385 37.4498 60.7198 37.4498 61.0293 37.271L65.4842 34.6976C66.1507 34.3126 66.1506 33.3505 65.484 32.9657L25.9559 10.1441Z" fill="#DBB11B"/>
<path d="M67 82.8135C67 83.1705 66.8096 83.5005 66.5005 83.6792L62.5005 85.9918C61.8338 86.3773 61 85.8962 61 85.1261L61 39.491C61 39.134 61.1903 38.804 61.4995 38.6253L65.4995 36.3128C66.1662 35.9274 67 36.4085 67 37.1785L67 82.8135Z" fill="#DBB11B"/>
<g clip-path="url(#clip0_603_554)">
<rect width="16.1655" height="16.1655" transform="matrix(0.866044 0.499967 -0.866044 0.499967 19 16)" fill="white"/>
<path d="M8.50032 22.7351L16.667 18.0205L17.8337 18.694L9.66699 23.4086L8.50032 22.7351ZM10.2503 23.7454L18.417 19.0308L19.5837 19.7043L11.417 24.4189L10.2503 23.7454ZM12.0003 24.7557L20.167 20.0411L20.7503 20.3778L12.5837 25.0924L12.0003 24.7557ZM13.7503 25.766L21.917 21.0513L23.0837 21.7248L14.917 26.4395L13.7503 25.766ZM15.5003 26.7762L23.667 22.0616L25.417 23.0719L17.2503 27.7865L15.5003 26.7762ZM17.8337 28.1233L26.0003 23.4086L26.5837 23.7454L18.417 28.46L17.8337 28.1233ZM19.5837 29.1335L27.7503 24.4189L29.5003 25.4292L21.3337 30.1438L19.5837 29.1335Z" fill="#383838"/>
</g>
<defs>
<clipPath id="clip0_603_554">
<rect width="16.1655" height="16.1655" fill="white" transform="matrix(0.866044 0.499967 -0.866044 0.499967 19 16)"/>
</clipPath>
</defs>
</svg>
