<svg width="283" height="288" viewBox="0 0 283 288" fill="none" xmlns="http://www.w3.org/2000/svg">
<g opacity="0.5">
<path d="M205.601 228.953C206.081 229.556 205.729 230.452 204.968 230.567L102.208 246.045C101.855 246.099 101.5 245.959 101.278 245.68L36.4476 164.316C35.9678 163.714 36.3195 162.817 37.0806 162.703L139.841 147.224C140.194 147.171 140.548 147.31 140.771 147.589L205.601 228.953Z" fill="#428260"/>
<path d="M140.775 142.924C140.644 143.258 140.345 143.497 139.991 143.55L36.873 158.941C36.1135 159.054 35.5154 158.304 35.7948 157.588L73.7194 60.3773C73.8497 60.0431 74.1488 59.8044 74.5032 59.7515L177.621 44.3607C178.381 44.2473 178.979 44.9979 178.699 45.7139L140.775 142.924Z" fill="#428260"/>
<path d="M248.861 127.857C249.084 128.137 249.14 128.514 249.01 128.846L211.079 225.688C210.798 226.405 209.847 226.549 209.367 225.947L144.537 144.583C144.314 144.303 144.258 143.927 144.388 143.594L182.319 46.7523C182.6 46.0351 183.551 45.8912 184.031 46.4934L248.861 127.857Z" fill="#383838"/>
<path d="M58.4066 102.033C58.0527 102.087 57.7544 102.326 57.6244 102.659L52.4649 115.901C52.1857 116.617 52.7852 117.368 53.5452 117.253L156.335 101.736C156.689 101.683 156.987 101.445 157.117 101.112L162.307 87.8663C162.587 87.1494 161.988 86.397 161.227 86.5118L58.4066 102.033Z" fill="#DBB11B"/>
<path d="M160.839 102.79C160.616 102.51 160.559 102.132 160.691 101.799L165.905 88.5795C166.187 87.8639 167.137 87.7215 167.616 88.3228L232.432 169.669C232.655 169.948 232.711 170.325 232.581 170.658L227.385 183.901C227.104 184.618 226.153 184.762 225.673 184.16L160.839 102.79Z" fill="#DBB11B"/>
<g clip-path="url(#clip0_405_2385)">
<rect width="22.0403" height="22.0403" transform="matrix(0.988384 -0.149243 -0.365185 0.931378 47.8066 134.767)" fill="white"/>
<path d="M42.342 150.881L47.0371 138.906L48.8525 138.632L44.1573 150.607L42.342 150.881ZM45.065 150.47L49.7601 138.495L51.5755 138.221L46.8804 150.196L45.065 150.47ZM47.7881 150.058L52.4832 138.084L53.3908 137.947L48.6957 149.921L47.7881 150.058ZM50.5111 149.647L55.2062 137.673L57.0216 137.399L52.3264 149.373L50.5111 149.647ZM53.2341 149.236L57.9292 137.262L60.6523 136.85L55.9571 148.825L53.2341 149.236ZM56.8648 148.688L61.5599 136.713L62.4676 136.576L57.7725 148.551L56.8648 148.688ZM59.5878 148.277L64.283 136.302L67.006 135.891L62.3109 147.866L59.5878 148.277Z" fill="#383838"/>
</g>
</g>
<defs>
<clipPath id="clip0_405_2385">
<rect width="22.0403" height="22.0403" fill="white" transform="matrix(0.988384 -0.149243 -0.365185 0.931378 47.8066 134.767)"/>
</clipPath>
</defs>
</svg>
