<svg width="200" height="214" viewBox="0 0 200 214" fill="none" xmlns="http://www.w3.org/2000/svg">
<g opacity="0.5">
<path d="M71.5043 188.133C71.269 188.867 70.3281 189.069 69.8112 188.498L13.5605 126.342C13.3209 126.077 13.2405 125.705 13.3496 125.365L38.9911 45.4733C39.2264 44.7401 40.1673 44.5373 40.6841 45.1084L96.9348 107.265C97.1745 107.53 97.2548 107.902 97.1457 108.242L71.5043 188.133Z" fill="#383838"/>
<path d="M100.434 106.024C100.084 106.101 99.7194 105.983 99.479 105.717L43.1253 43.2784C42.6106 42.7081 42.9038 41.7947 43.654 41.6311L125.793 23.7292C126.144 23.6528 126.508 23.77 126.749 24.0364L183.102 86.4751C183.617 87.0454 183.324 87.9589 182.574 88.1224L100.434 106.024Z" fill="#383838"/>
<path d="M159.017 172.208C158.908 172.548 158.626 172.804 158.277 172.88L76.3856 190.612C75.6332 190.775 74.9864 190.062 75.2217 189.329L100.863 109.437C100.972 109.097 101.254 108.841 101.603 108.766L183.494 91.0334C184.247 90.8704 184.894 91.5838 184.658 92.3171L159.017 172.208Z" fill="#428260"/>
<path d="M91.0157 32.1318C90.7753 31.8663 90.4114 31.7497 90.0618 31.826L79.2446 34.1884C78.4939 34.3523 78.2015 35.2676 78.7176 35.8376L135.009 97.9984C135.249 98.2634 135.612 98.3801 135.961 98.3045L146.794 95.9598C147.546 95.7971 147.839 94.8808 147.323 94.3101L91.0157 32.1318Z" fill="#DBB11B"/>
<path d="M136.358 101.699C136.468 101.359 136.751 101.102 137.101 101.027L147.926 98.7106C148.678 98.5497 149.323 99.2626 149.088 99.9948L123.452 179.869C123.343 180.209 123.06 180.465 122.711 180.54L111.878 182.88C111.126 183.042 110.48 182.329 110.715 181.596L136.358 101.699Z" fill="#DBB11B"/>
<g clip-path="url(#clip0_405_2391)">
<rect width="17.8609" height="17.8609" transform="matrix(0.671436 0.741395 -0.977185 0.21123 64.04 39.8037)" fill="white"/>
<path d="M50.7222 43.3421L60.9033 41.1414L61.9027 42.2449L51.7216 44.4456L50.7222 43.3421ZM52.2212 44.9974L62.4024 42.7966L63.4017 43.9001L53.2206 46.1009L52.2212 44.9974ZM53.7203 46.6526L63.9014 44.4518L64.4011 45.0036L54.22 47.2044L53.7203 46.6526ZM55.2194 48.3079L65.4005 46.1071L66.3999 47.2106L56.2187 49.4114L55.2194 48.3079ZM56.7184 49.9631L66.8995 47.7623L68.3986 49.4176L58.2175 51.6183L56.7184 49.9631ZM58.7171 52.1701L68.8983 49.9693L69.398 50.5211L59.2168 52.7218L58.7171 52.1701ZM60.2162 53.8253L70.3973 51.6246L71.8964 53.2798L61.7153 55.4806L60.2162 53.8253Z" fill="#383838"/>
</g>
</g>
<defs>
<clipPath id="clip0_405_2391">
<rect width="17.8609" height="17.8609" fill="white" transform="matrix(0.671436 0.741395 -0.977185 0.21123 64.04 39.8037)"/>
</clipPath>
</defs>
</svg>
