<svg width="210" height="222" viewBox="0 0 210 222" fill="none" xmlns="http://www.w3.org/2000/svg">
<g opacity="0.5">
<path d="M136.688 190.66C136.991 191.368 136.413 192.139 135.649 192.047L52.4639 182.022C52.1095 181.979 51.8049 181.75 51.6646 181.422L18.705 104.267C18.4025 103.559 18.9801 102.788 19.7444 102.88L102.929 112.905C103.284 112.948 103.588 113.177 103.729 113.505L136.688 190.66Z" fill="#383838"/>
<path d="M104.759 109.672C104.544 109.96 104.192 110.11 103.836 110.067L20.3887 99.8965C19.6265 99.8036 19.2496 98.9212 19.709 98.3054L70.0115 30.887C70.226 30.5995 70.578 30.4488 70.9339 30.4922L154.381 40.6628C155.144 40.7557 155.52 41.6381 155.061 42.2539L104.759 109.672Z" fill="#383838"/>
<path d="M192.343 121.209C192.483 121.537 192.438 121.915 192.224 122.201L141.997 189.329C141.536 189.946 140.58 189.832 140.278 189.123L107.318 111.968C107.178 111.64 107.223 111.262 107.437 110.976L157.663 43.8477C158.125 43.2309 159.081 43.3452 159.383 44.0534L192.343 121.209Z" fill="#428260"/>
<path d="M49.2527 60.0538C48.8973 60.011 48.5462 60.1617 48.3322 60.4488L41.7109 69.3309C41.2513 69.9473 41.6299 70.8305 42.393 70.9222L125.611 80.9242C125.966 80.9668 126.316 80.8168 126.531 80.5306L133.175 71.6514C133.637 71.0351 133.258 70.1504 132.494 70.0586L49.2527 60.0538Z" fill="#DBB11B"/>
<path d="M129.054 82.8332C128.914 82.5041 128.96 82.1247 129.175 81.8386L135.832 72.9851C136.295 72.3703 137.249 72.4855 137.551 73.1927L170.503 150.331C170.643 150.66 170.598 151.038 170.384 151.324L163.735 160.2C163.274 160.816 162.319 160.701 162.016 159.993L129.054 82.8332Z" fill="#DBB11B"/>
<g clip-path="url(#clip0_405_2384)">
<rect width="17.8614" height="17.8614" transform="matrix(0.992556 0.119257 -0.599556 0.800715 33.9072 83.5483)" fill="white"/>
<path d="M26.1682 94.9595L32.415 86.6167L33.8924 86.7942L27.6455 95.137L26.1682 94.9595ZM28.3842 95.2257L34.6311 86.883L36.1085 87.0605L29.8616 95.4032L28.3842 95.2257ZM30.6003 95.492L36.8471 87.1492L37.5858 87.238L31.339 95.5807L30.6003 95.492ZM32.8163 95.7583L39.0632 87.4155L40.5406 87.593L34.2937 95.9358L32.8163 95.7583ZM35.0324 96.0245L41.2793 87.6817L43.4953 87.948L37.2484 96.2908L35.0324 96.0245ZM37.9871 96.3795L44.234 88.0368L44.9727 88.1255L38.7258 96.4683L37.9871 96.3795ZM40.2032 96.6458L46.45 88.303L48.6661 88.5693L42.4192 96.9121L40.2032 96.6458Z" fill="#383838"/>
</g>
</g>
<defs>
<clipPath id="clip0_405_2384">
<rect width="17.8614" height="17.8614" fill="white" transform="matrix(0.992556 0.119257 -0.599556 0.800715 33.9072 83.5483)"/>
</clipPath>
</defs>
</svg>
