<svg width="315" height="336" viewBox="0 0 315 336" fill="none" xmlns="http://www.w3.org/2000/svg">
<g opacity="0.5">
<path d="M108.772 292.171C108.507 292.894 107.559 293.059 107.066 292.467L23.5239 192.242C23.2952 191.968 23.23 191.592 23.3529 191.257L68.2824 68.6459C68.5474 67.9228 69.4957 67.7585 69.9889 68.3502L153.531 168.575C153.759 168.85 153.825 169.225 153.702 169.56L108.772 292.171Z" fill="#428260"/>
<path d="M158.489 166.699C158.136 166.761 157.777 166.629 157.547 166.353L73.868 65.688C73.3769 65.0972 73.707 64.1964 74.4632 64.0636L203.323 41.4335C203.676 41.3714 204.035 41.5034 204.265 41.7793L287.944 142.444C288.435 143.035 288.105 143.936 287.349 144.069L158.489 166.699Z" fill="#428260"/>
<path d="M244.771 272.552C244.648 272.887 244.356 273.131 244.004 273.192L115.533 295.576C114.775 295.708 114.158 294.969 114.423 294.246L159.352 171.635C159.475 171.3 159.767 171.055 160.119 170.994L288.589 148.61C289.348 148.478 289.965 149.217 289.7 149.94L244.771 272.552Z" fill="#383838"/>
<path d="M148.721 52.0048C148.492 51.7298 148.133 51.5985 147.78 51.6605L129.743 54.8361C128.986 54.9693 128.657 55.8719 129.149 56.4625L212.751 156.695C212.98 156.969 213.338 157.1 213.69 157.039L231.753 153.894C232.511 153.762 232.841 152.858 232.348 152.267L148.721 52.0048Z" fill="#DBB11B"/>
<path d="M214.506 161.945C214.629 161.609 214.922 161.364 215.275 161.304L233.324 158.204C234.082 158.074 234.697 158.812 234.433 159.534L189.514 282.117C189.391 282.452 189.098 282.696 188.746 282.758L170.683 285.894C169.925 286.026 169.308 285.287 169.573 284.564L214.506 161.945Z" fill="#DBB11B"/>
<g clip-path="url(#clip0_405_2386)">
<rect width="27.532" height="27.532" transform="matrix(0.640729 0.768123 -0.984951 0.171246 107.022 62.022)" fill="white"/>
<path d="M86.2897 66.6355L102.108 63.8853L103.578 65.6476L87.7598 68.3978L86.2897 66.6355ZM88.4948 69.279L104.313 66.5288L105.784 68.2911L89.9649 71.0413L88.4948 69.279ZM90.6999 71.9225L106.519 69.1722L107.254 70.0534L91.4349 72.8037L90.6999 71.9225ZM92.905 74.566L108.724 71.8157L110.194 73.5781L94.375 76.3283L92.905 74.566ZM95.11 77.2095L110.929 74.4592L113.134 77.1027L97.3151 79.853L95.11 77.2095ZM98.0501 80.7342L113.869 77.9839L114.604 78.8651L98.7851 81.6153L98.0501 80.7342ZM100.255 83.3777L116.074 80.6274L118.279 83.2709L102.46 86.0212L100.255 83.3777Z" fill="#383838"/>
</g>
</g>
<defs>
<clipPath id="clip0_405_2386">
<rect width="27.532" height="27.532" fill="white" transform="matrix(0.640729 0.768123 -0.984951 0.171246 107.022 62.022)"/>
</clipPath>
</defs>
</svg>
