<svg width="716" height="111" viewBox="0 0 716 111" fill="none" xmlns="http://www.w3.org/2000/svg">
<path d="M53.1006 22.6475L25.5615 109H0.0732422L39.5508 2.35938H55.6641L53.1006 22.6475ZM75.9521 109L48.3398 22.6475L45.4834 2.35938H61.8164L101.44 109H75.9521ZM74.7803 69.3027V87.7598H19.1895V69.3027H74.7803ZM152.93 62.9307H125.537L125.391 46.9639H148.022C152.026 46.9639 155.273 46.4756 157.764 45.499C160.303 44.5225 162.158 43.1064 163.33 41.251C164.502 39.3467 165.088 37.0029 165.088 34.2197C165.088 31.0459 164.502 28.4824 163.33 26.5293C162.158 24.5762 160.303 23.1602 157.764 22.2812C155.273 21.3535 152.051 20.8896 148.096 20.8896H134.18V109H110.303V2.35938H148.096C154.492 2.35938 160.205 2.94531 165.234 4.11719C170.264 5.28906 174.536 7.0957 178.052 9.53711C181.616 11.9785 184.326 15.0303 186.182 18.6924C188.037 22.3545 188.965 26.6758 188.965 31.6562C188.965 36.002 187.988 40.0547 186.035 43.8145C184.131 47.5742 181.055 50.626 176.807 52.9697C172.559 55.3135 166.87 56.583 159.741 56.7783L152.93 62.9307ZM151.978 109H119.458L128.101 90.543H151.978C155.64 90.543 158.618 89.957 160.913 88.7852C163.208 87.6133 164.893 86.0264 165.967 84.0244C167.041 82.0225 167.578 79.7764 167.578 77.2861C167.578 74.3564 167.065 71.8174 166.04 69.6689C165.063 67.5205 163.501 65.8604 161.353 64.6885C159.253 63.5166 156.445 62.9307 152.93 62.9307H131.543L131.689 46.9639H157.837L163.403 53.2627C170.19 53.1162 175.61 54.2148 179.663 56.5586C183.765 58.8535 186.719 61.8809 188.525 65.6406C190.332 69.4004 191.235 73.3799 191.235 77.5791C191.235 84.5127 189.746 90.3232 186.768 95.0107C183.789 99.6494 179.37 103.141 173.511 105.484C167.7 107.828 160.522 109 151.978 109ZM295.605 53.3359V58.0967C295.605 66.2021 294.482 73.4775 292.236 79.9229C290.039 86.3682 286.89 91.8613 282.788 96.4023C278.735 100.943 273.901 104.435 268.286 106.876C262.72 109.269 256.543 110.465 249.756 110.465C242.969 110.465 236.768 109.269 231.152 106.876C225.537 104.435 220.654 100.943 216.504 96.4023C212.402 91.8613 209.229 86.3682 206.982 79.9229C204.736 73.4775 203.613 66.2021 203.613 58.0967V53.3359C203.613 45.2305 204.736 37.9551 206.982 31.5098C209.229 25.0156 212.378 19.498 216.431 14.957C220.532 10.416 225.391 6.94922 231.006 4.55664C236.621 2.11523 242.822 0.894531 249.609 0.894531C256.396 0.894531 262.598 2.11523 268.213 4.55664C273.828 6.94922 278.662 10.416 282.715 14.957C286.816 19.498 289.99 25.0156 292.236 31.5098C294.482 37.9551 295.605 45.2305 295.605 53.3359ZM271.509 58.0967V53.1895C271.509 47.7695 271.021 42.9844 270.044 38.834C269.067 34.6348 267.651 31.1191 265.796 28.2871C263.94 25.4551 261.646 23.3311 258.911 21.915C256.177 20.4502 253.076 19.7178 249.609 19.7178C245.996 19.7178 242.847 20.4502 240.161 21.915C237.476 23.3311 235.205 25.4551 233.35 28.2871C231.543 31.1191 230.151 34.6348 229.175 38.834C228.247 42.9844 227.783 47.7695 227.783 53.1895V58.0967C227.783 63.4678 228.247 68.2529 229.175 72.4521C230.151 76.6025 231.567 80.1182 233.423 82.999C235.278 85.8799 237.549 88.0527 240.234 89.5176C242.969 90.9824 246.143 91.7148 249.756 91.7148C253.223 91.7148 256.299 90.9824 258.984 89.5176C261.719 88.0527 264.014 85.8799 265.869 82.999C267.725 80.1182 269.116 76.6025 270.044 72.4521C271.021 68.2529 271.509 63.4678 271.509 58.0967ZM368.628 2.35938H392.505V72.3789C392.505 80.6797 390.747 87.6621 387.231 93.3262C383.765 98.9902 378.931 103.263 372.729 106.144C366.528 109.024 359.351 110.465 351.196 110.465C342.993 110.465 335.767 109.024 329.517 106.144C323.315 103.263 318.433 98.9902 314.868 93.3262C311.353 87.6621 309.595 80.6797 309.595 72.3789V2.35938H333.545V72.3789C333.545 76.9688 334.229 80.7285 335.596 83.6582C337.012 86.5391 339.038 88.6631 341.675 90.0303C344.312 91.3486 347.485 92.0078 351.196 92.0078C354.907 92.0078 358.057 91.3486 360.645 90.0303C363.281 88.6631 365.259 86.5391 366.577 83.6582C367.944 80.7285 368.628 76.9688 368.628 72.3789V2.35938ZM459.229 2.35938V109H435.425V2.35938H459.229ZM491.675 2.35938V20.8896H403.638V2.35938H491.675ZM595.093 2.35938H618.97V72.3789C618.97 80.6797 617.212 87.6621 613.696 93.3262C610.229 98.9902 605.396 103.263 599.194 106.144C592.993 109.024 585.815 110.465 577.661 110.465C569.458 110.465 562.231 109.024 555.981 106.144C549.78 103.263 544.897 98.9902 541.333 93.3262C537.817 87.6621 536.06 80.6797 536.06 72.3789V2.35938H560.01V72.3789C560.01 76.9688 560.693 80.7285 562.061 83.6582C563.477 86.5391 565.503 88.6631 568.14 90.0303C570.776 91.3486 573.95 92.0078 577.661 92.0078C581.372 92.0078 584.521 91.3486 587.109 90.0303C589.746 88.6631 591.724 86.5391 593.042 83.6582C594.409 80.7285 595.093 76.9688 595.093 72.3789V2.35938ZM691.333 80.875C691.333 79.0684 691.064 77.457 690.527 76.041C689.99 74.5762 689.014 73.2334 687.598 72.0127C686.182 70.792 684.18 69.5713 681.592 68.3506C679.004 67.0811 675.61 65.7871 671.411 64.4688C666.626 62.9062 662.061 61.1484 657.715 59.1953C653.418 57.1934 649.585 54.874 646.216 52.2373C642.847 49.6006 640.186 46.5244 638.232 43.0088C636.328 39.4932 635.376 35.3916 635.376 30.7041C635.376 26.1631 636.377 22.0615 638.379 18.3994C640.381 14.7373 643.188 11.6123 646.802 9.02441C650.415 6.3877 654.663 4.38574 659.546 3.01855C664.429 1.60254 669.8 0.894531 675.659 0.894531C683.472 0.894531 690.332 2.28613 696.24 5.06934C702.197 7.80371 706.836 11.6611 710.156 16.6416C713.477 21.5732 715.137 27.3105 715.137 33.8535H691.406C691.406 30.9727 690.796 28.4336 689.575 26.2363C688.403 23.9902 686.597 22.2324 684.155 20.9629C681.763 19.6934 678.76 19.0586 675.146 19.0586C671.631 19.0586 668.677 19.5957 666.284 20.6699C663.94 21.6953 662.158 23.1113 660.938 24.918C659.766 26.7246 659.18 28.7021 659.18 30.8506C659.18 32.5596 659.619 34.1221 660.498 35.5381C661.426 36.9053 662.744 38.1992 664.453 39.4199C666.211 40.5918 668.359 41.7148 670.898 42.7891C673.438 43.8633 676.343 44.8887 679.614 45.8652C685.327 47.6719 690.381 49.6738 694.775 51.8711C699.219 54.0684 702.954 56.5586 705.981 59.3418C709.009 62.125 711.279 65.2744 712.793 68.79C714.355 72.3057 715.137 76.2852 715.137 80.7285C715.137 85.4648 714.209 89.6641 712.354 93.3262C710.547 96.9883 707.91 100.113 704.443 102.701C701.025 105.24 696.924 107.169 692.139 108.487C687.354 109.806 682.007 110.465 676.099 110.465C670.728 110.465 665.43 109.781 660.205 108.414C654.98 106.998 650.244 104.85 645.996 101.969C641.797 99.0879 638.428 95.4258 635.889 90.9824C633.398 86.4902 632.153 81.168 632.153 75.0156H656.03C656.03 78.2383 656.494 80.9727 657.422 83.2188C658.35 85.416 659.668 87.1982 661.377 88.5654C663.135 89.9326 665.259 90.9092 667.749 91.4951C670.239 92.0811 673.022 92.374 676.099 92.374C679.663 92.374 682.544 91.8857 684.741 90.9092C686.987 89.8838 688.647 88.4922 689.722 86.7344C690.796 84.9766 691.333 83.0234 691.333 80.875Z" fill="white" fill-opacity="0.12"/>
</svg>
