<svg width="577" height="661" viewBox="0 0 577 661" fill="none" xmlns="http://www.w3.org/2000/svg">
<g opacity="0.5">
<path d="M281.138 659.127C281.138 659.897 280.304 660.378 279.637 659.992L0.499084 498.556C0.190063 498.377 -0.000244141 498.048 -0.000244141 497.691L-0.000213623 174.815C-0.000213623 174.045 0.833771 173.564 1.50043 173.949L280.638 335.386C280.947 335.564 281.138 335.894 281.138 336.251L281.138 659.127Z" fill="#428260"/>
<path d="M288.999 326.897C288.689 327.077 288.306 327.077 287.996 326.897L8.18109 164.567C7.51678 164.181 7.51685 163.222 8.18109 162.837L287.996 0.506409C288.306 0.326385 288.689 0.326385 288.999 0.506409L568.814 162.837C569.478 163.222 569.478 164.181 568.814 164.567L288.999 326.897Z" fill="#428260"/>
<path d="M577 497.691C577 498.048 576.81 498.377 576.501 498.556L297.363 659.992C296.696 660.378 295.862 659.897 295.862 659.127L295.862 336.251C295.862 335.894 296.052 335.564 296.361 335.386L575.499 173.949C576.166 173.564 577 174.045 577 174.815L577 497.691Z" fill="#383838"/>
<path d="M170.029 70.8396C169.719 70.6604 169.337 70.6608 169.028 70.8405L127.385 95.0222C126.721 95.4081 126.722 96.3691 127.388 96.7537L406.664 258.151C406.974 258.33 407.355 258.33 407.664 258.151L449.396 234.021C450.062 233.635 450.061 232.673 449.395 232.288L170.029 70.8396Z" fill="#DBB11B"/>
<path d="M414.391 267.476C414.391 267.119 414.582 266.788 414.892 266.61L456.633 242.603C457.3 242.219 458.132 242.701 458.132 243.47V566.264C458.132 566.622 457.941 566.952 457.632 567.13L415.891 591.24C415.224 591.625 414.391 591.144 414.391 590.374V267.476Z" fill="#DBB11B"/>
<g clip-path="url(#clip0_405_2442)">
<rect width="67.3554" height="67.3554" transform="matrix(0.865834 0.500331 -0.865834 0.500331 83.4062 129.437)" fill="white"/>
<path d="M39.6673 157.52L73.6865 137.862L78.5464 140.67L44.5272 160.328L39.6673 157.52ZM46.9572 161.732L80.9763 142.074L85.8362 144.882L51.817 164.541L46.9572 161.732ZM54.247 165.945L88.2662 146.287L90.6961 147.691L56.6769 167.349L54.247 165.945ZM61.5368 170.157L95.556 150.499L100.416 153.307L66.3967 172.966L61.5368 170.157ZM68.8266 174.37L102.846 154.712L110.136 158.924L76.1165 178.582L68.8266 174.37ZM78.5464 179.987L112.566 160.328L114.996 161.732L80.9763 181.391L78.5464 179.987ZM85.8362 184.199L119.855 164.541L127.145 168.753L93.1261 188.412L85.8362 184.199Z" fill="#383838"/>
</g>
</g>
<defs>
<clipPath id="clip0_405_2442">
<rect width="67.3554" height="67.3554" fill="white" transform="matrix(0.865834 0.500331 -0.865834 0.500331 83.4062 129.437)"/>
</clipPath>
</defs>
</svg>
