<svg width="123" height="78" viewBox="0 0 123 78" fill="none" xmlns="http://www.w3.org/2000/svg">
<path d="M8.60168 4.61142V36H3.1906V4.61142H8.60168ZM27.465 4.61142L14.7457 19.7236L7.50222 27.3983L6.55366 22.0304L11.7276 15.6492L20.8682 4.61142H27.465ZM21.6443 36L11.318 21.1249L15.0475 17.4385L28.0686 36H21.6443ZM35.9373 18.926L41.3484 15.2827C42.2539 14.679 42.9006 14.0898 43.2886 13.5149C43.6767 12.9257 43.8707 12.1927 43.8707 11.316C43.8707 10.5686 43.5833 9.87878 43.0084 9.24641C42.4335 8.61404 41.6215 8.29785 40.5723 8.29785C39.8394 8.29785 39.2214 8.47032 38.7183 8.81524C38.2153 9.1458 37.8345 9.59134 37.5758 10.1518C37.3314 10.698 37.2093 11.3088 37.2093 11.9843C37.2093 12.631 37.3745 13.2993 37.7051 13.9892C38.0357 14.6647 38.4884 15.3761 39.0633 16.1234C39.6381 16.8564 40.2849 17.6469 41.0035 18.4948L55.8355 36H49.8208L37.7051 21.7501C36.6559 20.4854 35.7289 19.3284 34.9241 18.2792C34.1193 17.2157 33.4941 16.1881 33.0486 15.1964C32.603 14.1904 32.3803 13.1556 32.3803 12.0921C32.3803 10.4537 32.718 9.0452 33.3935 7.86669C34.069 6.68818 35.0247 5.78274 36.2607 5.15037C37.4967 4.50363 38.9411 4.18025 40.5939 4.18025C42.1892 4.18025 43.5617 4.50363 44.7115 5.15037C45.8756 5.78274 46.7667 6.62351 47.3847 7.67267C48.0171 8.72183 48.3332 9.87159 48.3332 11.122C48.3332 12.1136 48.1536 13.0191 47.7943 13.8383C47.435 14.6575 46.9392 15.4048 46.3068 16.0803C45.6744 16.7558 44.9414 17.3954 44.1079 17.999L37.5326 22.7849C36.7709 23.4029 36.2032 23.9993 35.8295 24.5742C35.4702 25.1347 35.2331 25.6521 35.1181 26.1264C35.0032 26.6007 34.9457 27.0175 34.9457 27.3768C34.9457 28.2966 35.1397 29.1302 35.5277 29.8775C35.9302 30.6248 36.5122 31.2213 37.2739 31.6668C38.05 32.098 38.9914 32.3136 40.0981 32.3136C41.2909 32.3136 42.4479 32.0477 43.5689 31.5159C44.6899 30.9698 45.696 30.2009 46.587 29.2092C47.4781 28.2175 48.1823 27.0318 48.6997 25.6521C49.2315 24.2724 49.4974 22.7418 49.4974 21.0602H53.9815C53.9815 22.5837 53.8306 24.0281 53.5287 25.3934C53.2413 26.7588 52.7742 28.0235 52.1275 29.1876C51.4951 30.3518 50.6615 31.3938 49.6267 32.3136C49.5261 32.4142 49.4111 32.5435 49.2818 32.7016C49.1668 32.8453 49.0518 32.9675 48.9369 33.0681C47.7009 34.2035 46.314 35.0514 44.7762 35.612C43.2527 36.1581 41.6287 36.4312 39.904 36.4312C37.8201 36.4312 36.0164 36.0503 34.4929 35.2886C32.9695 34.5269 31.791 33.4777 30.9574 32.1411C30.1382 30.8045 29.7286 29.2739 29.7286 27.5492C29.7286 26.2701 29.9945 25.1491 30.5263 24.1862C31.058 23.2089 31.7838 22.3034 32.7036 21.4698C33.6378 20.6219 34.7157 19.7739 35.9373 18.926ZM61.613 4.61142H66.442L75.518 28.8212L84.5724 4.61142H89.4014L77.4151 36H73.5778L61.613 4.61142ZM59.4141 4.61142H64.006L64.8036 25.5659V36H59.4141V4.61142ZM87.0085 4.61142H91.6219V36H86.2108V25.5659L87.0085 4.61142Z" fill="#383838"/>
<path d="M7.04504 44.6588V57.6793H5.31912V44.6588H7.04504ZM11.5879 50.0691V57.6793H9.93351V48.0033H11.4985L11.5879 50.0691ZM11.1944 52.4747L10.5058 52.4478C10.5118 51.7861 10.6102 51.175 10.8009 50.6146C10.9917 50.0482 11.26 49.5564 11.6058 49.1391C11.9516 48.7217 12.3629 48.3998 12.8399 48.1733C13.3228 47.9408 13.8563 47.8245 14.4406 47.8245C14.9175 47.8245 15.3468 47.8901 15.7283 48.0212C16.1099 48.1464 16.4348 48.3491 16.7031 48.6293C16.9773 48.9095 17.186 49.2732 17.3291 49.7203C17.4721 50.1615 17.5437 50.701 17.5437 51.3389V57.6793H15.8803V51.3211C15.8803 50.8143 15.8058 50.4089 15.6568 50.1049C15.5077 49.7949 15.2901 49.5713 15.004 49.4342C14.7178 49.2911 14.3661 49.2195 13.9487 49.2195C13.5374 49.2195 13.1618 49.306 12.822 49.4789C12.4881 49.6518 12.199 49.8902 11.9545 50.1943C11.7161 50.4983 11.5283 50.8471 11.3912 51.2406C11.26 51.6281 11.1944 52.0394 11.1944 52.4747ZM22.9987 56.1858L25.6457 48.0033H27.3358L23.8572 57.6793H22.7483L22.9987 56.1858ZM20.7898 48.0033L23.5173 56.2306L23.7051 57.6793H22.5963L19.0907 48.0033H20.7898ZM32.8177 57.8581C32.144 57.8581 31.5329 57.7448 30.9844 57.5183C30.4419 57.2858 29.9739 56.9609 29.5804 56.5435C29.1929 56.1262 28.8948 55.6314 28.6862 55.0591C28.4775 54.4867 28.3732 53.8608 28.3732 53.1811V52.8055C28.3732 52.0186 28.4894 51.3181 28.7219 50.704C28.9545 50.084 29.2704 49.5594 29.6699 49.1301C30.0693 48.7009 30.5224 48.376 31.0291 48.1554C31.5359 47.9348 32.0605 47.8245 32.603 47.8245C33.2946 47.8245 33.8908 47.9437 34.3916 48.1822C34.8983 48.4207 35.3127 48.7545 35.6346 49.1838C35.9565 49.6071 36.195 50.1078 36.35 50.6861C36.505 51.2585 36.5825 51.8844 36.5825 52.5641V53.3063H29.3569V51.956H34.9281V51.8308C34.9043 51.4015 34.8148 50.9842 34.6598 50.5788C34.5108 50.1734 34.2723 49.8396 33.9444 49.5772C33.6165 49.3149 33.1694 49.1838 32.603 49.1838C32.2275 49.1838 31.8817 49.2643 31.5657 49.4252C31.2497 49.5802 30.9785 49.8127 30.7519 50.1227C30.5254 50.4328 30.3495 50.8113 30.2243 51.2585C30.0991 51.7056 30.0365 52.2213 30.0365 52.8055V53.1811C30.0365 53.6402 30.0991 54.0724 30.2243 54.4778C30.3555 54.8772 30.5433 55.229 30.7877 55.533C31.0381 55.8371 31.3392 56.0756 31.6909 56.2484C32.0486 56.4213 32.454 56.5078 32.9071 56.5078C33.4913 56.5078 33.9862 56.3885 34.3916 56.1501C34.797 55.9116 35.1517 55.5926 35.4557 55.1932L36.4573 55.9891C36.2486 56.3051 35.9833 56.6061 35.6614 56.8923C35.3395 57.1785 34.943 57.411 34.472 57.5898C34.007 57.7687 33.4556 57.8581 32.8177 57.8581ZM44.148 55.1127C44.148 54.8743 44.0943 54.6537 43.987 54.451C43.8856 54.2423 43.674 54.0545 43.3521 53.8876C43.0361 53.7147 42.5592 53.5657 41.9212 53.4405C41.3847 53.3272 40.8988 53.193 40.4636 53.038C40.0344 52.883 39.6677 52.6952 39.3637 52.4747C39.0656 52.2541 38.836 51.9947 38.6751 51.6966C38.5141 51.3986 38.4336 51.0498 38.4336 50.6504C38.4336 50.2688 38.5171 49.9081 38.684 49.5683C38.8569 49.2285 39.0984 48.9274 39.4084 48.6651C39.7243 48.4028 40.1029 48.1971 40.5441 48.0481C40.9853 47.899 41.4771 47.8245 42.0196 47.8245C42.7946 47.8245 43.4564 47.9616 44.0049 48.2359C44.5534 48.5101 44.9737 48.8767 45.2658 49.3358C45.5579 49.7889 45.704 50.2927 45.704 50.8471H44.0496C44.0496 50.5788 43.9691 50.3195 43.8081 50.0691C43.6531 49.8127 43.4236 49.6011 43.1196 49.4342C42.8215 49.2672 42.4548 49.1838 42.0196 49.1838C41.5606 49.1838 41.188 49.2553 40.9018 49.3984C40.6216 49.5355 40.4159 49.7114 40.2847 49.926C40.1596 50.1406 40.097 50.3672 40.097 50.6057C40.097 50.7845 40.1268 50.9455 40.1864 51.0886C40.252 51.2257 40.3652 51.3538 40.5262 51.4731C40.6872 51.5864 40.9137 51.6937 41.2058 51.795C41.498 51.8964 41.8706 51.9977 42.3237 52.0991C43.1166 52.2779 43.7694 52.4925 44.2821 52.7429C44.7948 52.9933 45.1764 53.3004 45.4268 53.664C45.6771 54.0277 45.8023 54.4689 45.8023 54.9875C45.8023 55.4108 45.7129 55.7983 45.5341 56.1501C45.3612 56.5018 45.1078 56.8059 44.7739 57.0622C44.446 57.3126 44.0526 57.5094 43.5935 57.6524C43.1404 57.7896 42.6307 57.8581 42.0643 57.8581C41.2118 57.8581 40.4904 57.7061 39.9002 57.402C39.31 57.098 38.8629 56.7045 38.5588 56.2216C38.2548 55.7387 38.1027 55.229 38.1027 54.6924H39.7661C39.7899 55.1455 39.9211 55.5062 40.1596 55.7745C40.398 56.0368 40.6901 56.2246 41.0359 56.3379C41.3817 56.4452 41.7245 56.4988 42.0643 56.4988C42.5174 56.4988 42.896 56.4392 43.2 56.32C43.5101 56.2007 43.7455 56.0368 43.9065 55.8281C44.0675 55.6195 44.148 55.381 44.148 55.1127ZM52.0264 48.0033V49.2732H46.795V48.0033H52.0264ZM48.5656 45.6514H50.22V55.2826C50.22 55.6105 50.2707 55.8579 50.372 56.0249C50.4734 56.1918 50.6045 56.3021 50.7655 56.3558C50.9265 56.4094 51.0994 56.4362 51.2842 56.4362C51.4213 56.4362 51.5644 56.4243 51.7134 56.4005C51.8684 56.3707 51.9847 56.3468 52.0622 56.3289L52.0711 57.6793C51.94 57.721 51.7671 57.7597 51.5524 57.7955C51.3438 57.8372 51.0904 57.8581 50.7923 57.8581C50.3869 57.8581 50.0143 57.7776 49.6745 57.6167C49.3347 57.4557 49.0634 57.1874 48.8607 56.8118C48.664 56.4303 48.5656 55.9176 48.5656 55.2737V45.6514ZM55.6124 49.926V57.6793H53.9491V48.0033H55.523L55.6124 49.926ZM55.2726 52.4747L54.5035 52.4478C54.5095 51.7861 54.5959 51.175 54.7628 50.6146C54.9298 50.0482 55.1772 49.5564 55.5051 49.1391C55.833 48.7217 56.2414 48.3998 56.7302 48.1733C57.2191 47.9408 57.7854 47.8245 58.4293 47.8245C58.8824 47.8245 59.2997 47.8901 59.6813 48.0212C60.0628 48.1464 60.3937 48.3461 60.6739 48.6204C60.9541 48.8946 61.1717 49.2464 61.3267 49.6756C61.4817 50.1049 61.5592 50.6235 61.5592 51.2316V57.6793H59.9049V51.3121C59.9049 50.8054 59.8184 50.4 59.6455 50.0959C59.4786 49.7919 59.2401 49.5713 58.9301 49.4342C58.6201 49.2911 58.2564 49.2195 57.8391 49.2195C57.3502 49.2195 56.9419 49.306 56.614 49.4789C56.2861 49.6518 56.0238 49.8902 55.827 50.1943C55.6303 50.4983 55.4872 50.8471 55.3978 51.2406C55.3143 51.6281 55.2726 52.0394 55.2726 52.4747ZM61.5413 51.5625L60.4325 51.9023C60.4384 51.3717 60.5249 50.862 60.6918 50.3731C60.8647 49.8843 61.1121 49.4491 61.434 49.0675C61.7619 48.686 62.1644 48.3849 62.6413 48.1643C63.1182 47.9378 63.6637 47.8245 64.2778 47.8245C64.7965 47.8245 65.2555 47.8931 65.655 48.0302C66.0604 48.1673 66.4002 48.3789 66.6744 48.6651C66.9546 48.9453 67.1663 49.306 67.3093 49.7472C67.4524 50.1883 67.524 50.713 67.524 51.3211V57.6793H65.8606V51.3032C65.8606 50.7607 65.7742 50.3404 65.6013 50.0423C65.4344 49.7382 65.1959 49.5266 64.8859 49.4073C64.5818 49.2821 64.2182 49.2195 63.7949 49.2195C63.4312 49.2195 63.1093 49.2821 62.8291 49.4073C62.5489 49.5325 62.3134 49.7054 62.1226 49.926C61.9318 50.1406 61.7858 50.388 61.6844 50.6682C61.589 50.9485 61.5413 51.2465 61.5413 51.5625ZM74.0431 57.8581C73.3694 57.8581 72.7584 57.7448 72.2099 57.5183C71.6674 57.2858 71.1994 56.9609 70.8059 56.5435C70.4184 56.1262 70.1203 55.6314 69.9116 55.0591C69.703 54.4867 69.5986 53.8608 69.5986 53.1811V52.8055C69.5986 52.0186 69.7149 51.3181 69.9474 50.704C70.1799 50.084 70.4959 49.5594 70.8953 49.1301C71.2948 48.7009 71.7479 48.376 72.2546 48.1554C72.7614 47.9348 73.286 47.8245 73.8285 47.8245C74.5201 47.8245 75.1162 47.9437 75.617 48.1822C76.1238 48.4207 76.5381 48.7545 76.8601 49.1838C77.182 49.6071 77.4205 50.1078 77.5755 50.6861C77.7305 51.2585 77.808 51.8844 77.808 52.5641V53.3063H70.5823V51.956H76.1536V51.8308C76.1297 51.4015 76.0403 50.9842 75.8853 50.5788C75.7363 50.1734 75.4978 49.8396 75.1699 49.5772C74.842 49.3149 74.3949 49.1838 73.8285 49.1838C73.4529 49.1838 73.1071 49.2643 72.7912 49.4252C72.4752 49.5802 72.2039 49.8127 71.9774 50.1227C71.7508 50.4328 71.575 50.8113 71.4498 51.2585C71.3246 51.7056 71.262 52.2213 71.262 52.8055V53.1811C71.262 53.6402 71.3246 54.0724 71.4498 54.4778C71.5809 54.8772 71.7687 55.229 72.0132 55.533C72.2635 55.8371 72.5646 56.0756 72.9164 56.2484C73.2741 56.4213 73.6795 56.5078 74.1326 56.5078C74.7168 56.5078 75.2116 56.3885 75.617 56.1501C76.0224 55.9116 76.3772 55.5926 76.6812 55.1932L77.6828 55.9891C77.4741 56.3051 77.2088 56.6061 76.8869 56.8923C76.5649 57.1785 76.1685 57.411 75.6975 57.5898C75.2325 57.7687 74.681 57.8581 74.0431 57.8581ZM81.394 50.0691V57.6793H79.7396V48.0033H81.3045L81.394 50.0691ZM81.0005 52.4747L80.3119 52.4478C80.3179 51.7861 80.4162 51.175 80.607 50.6146C80.7978 50.0482 81.0661 49.5564 81.4118 49.1391C81.7576 48.7217 82.169 48.3998 82.6459 48.1733C83.1288 47.9408 83.6624 47.8245 84.2467 47.8245C84.7236 47.8245 85.1528 47.8901 85.5344 48.0212C85.9159 48.1464 86.2409 48.3491 86.5091 48.6293C86.7834 48.9095 86.992 49.2732 87.1351 49.7203C87.2782 50.1615 87.3497 50.701 87.3497 51.3389V57.6793H85.6864V51.3211C85.6864 50.8143 85.6119 50.4089 85.4629 50.1049C85.3138 49.7949 85.0962 49.5713 84.81 49.4342C84.5239 49.2911 84.1721 49.2195 83.7548 49.2195C83.3435 49.2195 82.9679 49.306 82.628 49.4789C82.2942 49.6518 82.005 49.8902 81.7606 50.1943C81.5221 50.4983 81.3343 50.8471 81.1972 51.2406C81.0661 51.6281 81.0005 52.0394 81.0005 52.4747ZM93.9136 48.0033V49.2732H88.6822V48.0033H93.9136ZM90.4528 45.6514H92.1072V55.2826C92.1072 55.6105 92.1579 55.8579 92.2592 56.0249C92.3606 56.1918 92.4917 56.3021 92.6527 56.3558C92.8137 56.4094 92.9866 56.4362 93.1714 56.4362C93.3085 56.4362 93.4516 56.4243 93.6006 56.4005C93.7556 56.3707 93.8719 56.3468 93.9494 56.3289L93.9583 57.6793C93.8272 57.721 93.6543 57.7597 93.4397 57.7955C93.231 57.8372 92.9776 57.8581 92.6795 57.8581C92.2741 57.8581 91.9015 57.7776 91.5617 57.6167C91.2219 57.4557 90.9506 57.1874 90.7479 56.8118C90.5512 56.4303 90.4528 55.9176 90.4528 55.2737V45.6514Z" fill="#383838"/>
<path d="M14.4185 68.0878V72.6839C14.2633 72.9139 14.0161 73.1726 13.6769 73.46C13.3378 73.7417 12.8692 73.9889 12.2714 74.2016C11.6792 74.4086 10.9146 74.5121 9.97758 74.5121C9.21299 74.5121 8.50876 74.3798 7.86489 74.1154C7.22677 73.8452 6.67201 73.4543 6.2006 72.9426C5.73495 72.4252 5.37277 71.7986 5.11407 71.0628C4.86113 70.3212 4.73465 69.4818 4.73465 68.5448V67.5704C4.73465 66.6333 4.84388 65.7968 5.06234 65.061C5.28654 64.3251 5.61422 63.7014 6.04538 63.1898C6.47655 62.6724 7.00544 62.2814 7.63206 62.017C8.25868 61.7468 8.97729 61.6117 9.78787 61.6117C10.7479 61.6117 11.5499 61.7784 12.1938 62.1118C12.8434 62.4395 13.3493 62.8937 13.7114 63.4743C14.0794 64.055 14.3151 64.7161 14.4185 65.4577H12.7543C12.6795 65.0035 12.5301 64.5896 12.3059 64.2159C12.0874 63.8422 11.7741 63.5433 11.3659 63.3191C10.9578 63.0891 10.4317 62.9742 9.78787 62.9742C9.20724 62.9742 8.70422 63.0805 8.2788 63.2932C7.85339 63.5059 7.50271 63.8106 7.22677 64.2073C6.95082 64.604 6.74387 65.084 6.60589 65.6474C6.47367 66.2108 6.40756 66.846 6.40756 67.5531V68.5448C6.40756 69.2691 6.49092 69.9159 6.65763 70.485C6.8301 71.0541 7.07442 71.5399 7.39061 71.9423C7.70679 72.339 8.08334 72.6408 8.52025 72.8478C8.96291 73.0547 9.45156 73.1582 9.9862 73.1582C10.5783 73.1582 11.0584 73.1094 11.4263 73.0116C11.7942 72.9081 12.0817 72.7874 12.2886 72.6494C12.4956 72.5057 12.6537 72.3706 12.7629 72.2442V69.433H9.85686V68.0878H14.4185ZM19.8564 66.4752V74.3396H18.2611V65.0093H19.8132L19.8564 66.4752ZM22.771 64.9575L22.7624 66.4407C22.6302 66.412 22.5037 66.3947 22.383 66.389C22.268 66.3775 22.1358 66.3717 21.9863 66.3717C21.6184 66.3717 21.2936 66.4292 21.0119 66.5442C20.7302 66.6592 20.4916 66.8201 20.2961 67.0271C20.1007 67.2341 19.9455 67.4813 19.8305 67.7687C19.7213 68.0504 19.6494 68.3608 19.6149 68.7L19.1665 68.9587C19.1665 68.3953 19.2211 67.8664 19.3303 67.372C19.4453 66.8776 19.6207 66.4407 19.8564 66.0613C20.0921 65.6761 20.391 65.3772 20.7532 65.1645C21.1211 64.946 21.558 64.8368 22.0639 64.8368C22.1789 64.8368 22.3111 64.8512 22.4606 64.8799C22.61 64.9029 22.7135 64.9288 22.771 64.9575ZM24.9751 69.7779V69.5796C24.9751 68.907 25.0728 68.2832 25.2683 67.7083C25.4638 67.1277 25.7455 66.6247 26.1134 66.1993C26.4813 65.7681 26.9268 65.4347 27.45 65.199C27.9731 64.9575 28.5595 64.8368 29.2091 64.8368C29.8645 64.8368 30.4537 64.9575 30.9769 65.199C31.5058 65.4347 31.9542 65.7681 32.3221 66.1993C32.6958 66.6247 32.9804 67.1277 33.1758 67.7083C33.3713 68.2832 33.469 68.907 33.469 69.5796V69.7779C33.469 70.4505 33.3713 71.0743 33.1758 71.6491C32.9804 72.224 32.6958 72.7271 32.3221 73.1582C31.9542 73.5836 31.5087 73.9171 30.9855 74.1585C30.4681 74.3942 29.8817 74.5121 29.2264 74.5121C28.571 74.5121 27.9818 74.3942 27.4586 74.1585C26.9355 73.9171 26.4871 73.5836 26.1134 73.1582C25.7455 72.7271 25.4638 72.224 25.2683 71.6491C25.0728 71.0743 24.9751 70.4505 24.9751 69.7779ZM26.5704 69.5796V69.7779C26.5704 70.2436 26.625 70.6833 26.7343 71.0973C26.8435 71.5054 27.0073 71.8676 27.2258 72.1838C27.45 72.5 27.7288 72.75 28.0622 72.934C28.3957 73.1122 28.7837 73.2013 29.2264 73.2013C29.6633 73.2013 30.0456 73.1122 30.3733 72.934C30.7067 72.75 30.9826 72.5 31.2011 72.1838C31.4195 71.8676 31.5834 71.5054 31.6926 71.0973C31.8076 70.6833 31.8651 70.2436 31.8651 69.7779V69.5796C31.8651 69.1197 31.8076 68.6856 31.6926 68.2775C31.5834 67.8635 31.4167 67.4985 31.1925 67.1823C30.974 66.8604 30.6981 66.6074 30.3646 66.4235C30.037 66.2395 29.6518 66.1475 29.2091 66.1475C28.7722 66.1475 28.387 66.2395 28.0536 66.4235C27.7259 66.6074 27.45 66.8604 27.2258 67.1823C27.0073 67.4985 26.8435 67.8635 26.7343 68.2775C26.625 68.6856 26.5704 69.1197 26.5704 69.5796ZM42.5027 72.1838V65.0093H44.1066V74.3396H42.5803L42.5027 72.1838ZM42.8045 70.2177L43.4685 70.2004C43.4685 70.8213 43.4024 71.3962 43.2702 71.9251C43.1437 72.4482 42.9367 72.9024 42.6493 73.2876C42.3619 73.6727 41.9853 73.9745 41.5197 74.193C41.054 74.4057 40.4877 74.5121 39.8209 74.5121C39.3667 74.5121 38.9499 74.446 38.5705 74.3137C38.1968 74.1815 37.8749 73.9774 37.6047 73.7015C37.3345 73.4255 37.1247 73.0662 36.9752 72.6236C36.8315 72.1809 36.7596 71.6491 36.7596 71.0283V65.0093H38.3549V71.0455C38.3549 71.4652 38.4009 71.813 38.4929 72.0889C38.5906 72.3591 38.72 72.5747 38.8809 72.7357C39.0477 72.8909 39.2316 73.0001 39.4328 73.0634C39.6398 73.1266 39.8525 73.1582 40.071 73.1582C40.7493 73.1582 41.2868 73.0289 41.6835 72.7702C42.0802 72.5057 42.3647 72.1522 42.5372 71.7095C42.7154 71.2611 42.8045 70.7638 42.8045 70.2177ZM49.4582 66.8029V77.9269H47.8543V65.0093H49.3202L49.4582 66.8029ZM55.7446 69.5968V69.7779C55.7446 70.4563 55.6641 71.0858 55.5031 71.6664C55.3421 72.2413 55.1064 72.7414 54.796 73.1668C54.4913 73.5923 54.1148 73.9228 53.6664 74.1585C53.2179 74.3942 52.7034 74.5121 52.1228 74.5121C51.5307 74.5121 51.0075 74.4143 50.5534 74.2189C50.0992 74.0234 49.714 73.7388 49.3979 73.3652C49.0817 72.9915 48.8287 72.5431 48.639 72.0199C48.455 71.4968 48.3286 70.9076 48.2596 70.2522V69.2864C48.3286 68.5965 48.4579 67.9785 48.6476 67.4324C48.8373 66.8862 49.0874 66.4206 49.3979 66.0354C49.714 65.6445 50.0963 65.3484 50.5447 65.1472C50.9931 64.9403 51.5105 64.8368 52.0969 64.8368C52.6833 64.8368 53.2036 64.9518 53.6577 65.1817C54.1119 65.4059 54.4942 65.7279 54.8046 66.1475C55.1151 66.5672 55.3479 67.0702 55.5031 67.6566C55.6641 68.2372 55.7446 68.884 55.7446 69.5968ZM54.1406 69.7779V69.5968C54.1406 69.1312 54.0918 68.6943 53.994 68.2861C53.8963 67.8722 53.744 67.51 53.537 67.1996C53.3358 66.8834 53.0771 66.6362 52.7609 66.458C52.4447 66.274 52.0682 66.182 51.6313 66.182C51.2289 66.182 50.8782 66.251 50.5792 66.389C50.286 66.5269 50.036 66.7138 49.829 66.9495C49.6221 67.1794 49.4525 67.4439 49.3202 67.7428C49.1938 68.036 49.0989 68.3407 49.0357 68.6569V70.8903C49.1507 71.2927 49.3116 71.6721 49.5186 72.0286C49.7255 72.3793 50.0015 72.6638 50.3464 72.8823C50.6913 73.095 51.1254 73.2013 51.6485 73.2013C52.0797 73.2013 52.4505 73.1122 52.7609 72.934C53.0771 72.75 53.3358 72.5 53.537 72.1838C53.744 71.8676 53.8963 71.5054 53.994 71.0973C54.0918 70.6833 54.1406 70.2436 54.1406 69.7779ZM72.6651 72.9858V74.3396H66.3874V72.9858H72.6651ZM66.715 61.7842V74.3396H65.0507V61.7842H66.715ZM83.5097 72.9858V74.3396H77.2319V72.9858H83.5097ZM77.5596 61.7842V74.3396H75.8953V61.7842H77.5596ZM93.7506 70.347H95.4063C95.32 71.1404 95.093 71.8504 94.725 72.477C94.3571 73.1036 93.8368 73.6009 93.1642 73.9688C92.4916 74.331 91.6523 74.5121 90.6462 74.5121C89.9104 74.5121 89.2407 74.3741 88.637 74.0981C88.0392 73.8222 87.5246 73.4313 87.0935 72.9254C86.6623 72.4137 86.3289 71.8015 86.0932 71.0886C85.8632 70.37 85.7482 69.5709 85.7482 68.6914V67.441C85.7482 66.5614 85.8632 65.7652 86.0932 65.0524C86.3289 64.3338 86.6652 63.7186 87.1021 63.207C87.5448 62.6954 88.0765 62.3016 88.6974 62.0256C89.3183 61.7497 90.0167 61.6117 90.7928 61.6117C91.7414 61.6117 92.5434 61.7899 93.1987 62.1463C93.8541 62.5028 94.3629 62.9972 94.725 63.6295C95.093 64.2562 95.32 64.9834 95.4063 65.8112H93.7506C93.6701 65.2248 93.5207 64.7218 93.3022 64.3022C93.0837 63.8767 92.7733 63.5491 92.3709 63.3191C91.9685 63.0891 91.4425 62.9742 90.7928 62.9742C90.2352 62.9742 89.7437 63.0805 89.3183 63.2932C88.8986 63.5059 88.545 63.8078 88.2576 64.1987C87.9759 64.5896 87.7632 65.0581 87.6195 65.6043C87.4758 66.1504 87.4039 66.7569 87.4039 67.4238V68.6914C87.4039 69.3065 87.4671 69.8843 87.5936 70.4246C87.7258 70.965 87.9242 71.4393 88.1886 71.8475C88.4531 72.2557 88.7894 72.5776 89.1975 72.8133C89.6057 73.0432 90.0886 73.1582 90.6462 73.1582C91.3533 73.1582 91.9167 73.0461 92.3364 72.8219C92.7561 72.5977 93.0722 72.2758 93.285 71.8561C93.5034 71.4364 93.6586 70.9334 93.7506 70.347Z" fill="#383838"/>
</svg>
